<svg id="visual" viewBox="0 0 900 600" width="900" height="600" xmlns="http://www.w3.org/2000/svg" xmlns:xlink="http://www.w3.org/1999/xlink" version="1.1"><rect x="0" y="0" width="900" height="600" fill="#FF0066"></rect><path d="M0 288L129 288L129 334L257 334L257 273L386 273L386 383L514 383L514 349L643 349L643 358L771 358L771 302L900 302L900 294L900 601L900 601L771 601L771 601L643 601L643 601L514 601L514 601L386 601L386 601L257 601L257 601L129 601L129 601L0 601Z" fill="#001122"></path><path d="M0 411L129 411L129 384L257 384L257 367L386 367L386 353L514 353L514 355L643 355L643 450L771 450L771 429L900 429L900 351L900 601L900 601L771 601L771 601L643 601L643 601L514 601L514 601L386 601L386 601L257 601L257 601L129 601L129 601L0 601Z" fill="#001333"></path><path d="M0 489L129 489L129 462L257 462L257 460L386 460L386 459L514 459L514 476L643 476L643 477L771 477L771 475L900 475L900 503L900 601L900 601L771 601L771 601L643 601L643 601L514 601L514 601L386 601L386 601L257 601L257 601L129 601L129 601L0 601Z" fill="#001142"></path></svg>