<svg id="visual" viewBox="0 0 900 600" width="900" height="600" xmlns="http://www.w3.org/2000/svg" xmlns:xlink="http://www.w3.org/1999/xlink" version="1.1"><rect x="0" y="0" width="900" height="600" fill="#FF0066"></rect><path d="M0 389L21.5 392C43 395 86 401 128.8 422.3C171.7 443.7 214.3 480.3 257.2 490C300 499.7 343 482.3 385.8 483.2C428.7 484 471.3 503 514.2 489.3C557 475.7 600 429.3 642.8 419.5C685.7 409.7 728.3 436.3 771.2 452.7C814 469 857 475 878.5 478L900 481L900 601L878.5 601C857 601 814 601 771.2 601C728.3 601 685.7 601 642.8 601C600 601 557 601 514.2 601C471.3 601 428.7 601 385.8 601C343 601 300 601 257.2 601C214.3 601 171.7 601 128.8 601C86 601 43 601 21.5 601L0 601Z" fill="#001122" stroke-linecap="round" stroke-linejoin="miter"></path></svg>