<svg width="1305" height="204" viewBox="0 0 1305 204" fill="none" xmlns="http://www.w3.org/2000/svg">
<path d="M16.72 31.47H45.365V42.18H16.72V31.47ZM17.74 55.95H50.125V67H4.055V7.5H49.02V18.55H17.74V55.95ZM87.9473 67V58.075L87.0973 56.12V40.14C87.0973 37.3067 86.219 35.0967 84.4623 33.51C82.7623 31.9233 80.1273 31.13 76.5573 31.13C74.1207 31.13 71.7123 31.5267 69.3323 32.32C67.009 33.0567 65.0257 34.0767 63.3823 35.38L58.6223 26.115C61.1157 24.3583 64.119 22.9983 67.6323 22.035C71.1457 21.0717 74.7157 20.59 78.3423 20.59C85.3123 20.59 90.724 22.2333 94.5773 25.52C98.4307 28.8067 100.357 33.935 100.357 40.905V67H87.9473ZM74.0073 67.68C70.4373 67.68 67.3773 67.085 64.8273 65.895C62.2773 64.6483 60.3223 62.9767 58.9623 60.88C57.6023 58.7833 56.9223 56.4317 56.9223 53.825C56.9223 51.105 57.574 48.725 58.8773 46.685C60.2373 44.645 62.3623 43.0583 65.2523 41.925C68.1423 40.735 71.9107 40.14 76.5573 40.14H88.7123V47.875H78.0023C74.8857 47.875 72.7323 48.385 71.5423 49.405C70.409 50.425 69.8423 51.7 69.8423 53.23C69.8423 54.93 70.494 56.29 71.7973 57.31C73.1573 58.2733 74.999 58.755 77.3223 58.755C79.5323 58.755 81.5157 58.245 83.2723 57.225C85.029 56.1483 86.304 54.59 87.0973 52.55L89.1373 58.67C88.174 61.6167 86.4173 63.855 83.8673 65.385C81.3173 66.915 78.0307 67.68 74.0073 67.68ZM127.743 67.68C123.833 67.68 120.065 67.2267 116.438 66.32C112.868 65.3567 110.035 64.1667 107.938 62.75L112.358 53.23C114.455 54.5333 116.92 55.61 119.753 56.46C122.643 57.2533 125.477 57.65 128.253 57.65C131.313 57.65 133.467 57.2817 134.713 56.545C136.017 55.8083 136.668 54.7883 136.668 53.485C136.668 52.4083 136.158 51.615 135.138 51.105C134.175 50.5383 132.872 50.1133 131.228 49.83C129.585 49.5467 127.772 49.2633 125.788 48.98C123.862 48.6967 121.907 48.3283 119.923 47.875C117.94 47.365 116.127 46.6283 114.483 45.665C112.84 44.7017 111.508 43.3983 110.488 41.755C109.525 40.1117 109.043 37.9867 109.043 35.38C109.043 32.49 109.865 29.94 111.508 27.73C113.208 25.52 115.645 23.7917 118.818 22.545C121.992 21.2417 125.788 20.59 130.208 20.59C133.325 20.59 136.498 20.93 139.728 21.61C142.958 22.29 145.65 23.2817 147.803 24.585L143.383 34.02C141.173 32.7167 138.935 31.8383 136.668 31.385C134.458 30.875 132.305 30.62 130.208 30.62C127.262 30.62 125.108 31.0167 123.748 31.81C122.388 32.6033 121.708 33.6233 121.708 34.87C121.708 36.0033 122.19 36.8533 123.153 37.42C124.173 37.9867 125.505 38.44 127.148 38.78C128.792 39.12 130.577 39.4317 132.503 39.715C134.487 39.9417 136.47 40.31 138.453 40.82C140.437 41.33 142.222 42.0667 143.808 43.03C145.452 43.9367 146.783 45.2117 147.803 46.855C148.823 48.4417 149.333 50.5383 149.333 53.145C149.333 55.9783 148.483 58.5 146.783 60.71C145.083 62.8633 142.618 64.5633 139.388 65.81C136.215 67.0567 132.333 67.68 127.743 67.68ZM157.515 67V21.27H170.775V67H157.515ZM164.145 14.895C161.708 14.895 159.725 14.1867 158.195 12.77C156.665 11.3533 155.9 9.59666 155.9 7.5C155.9 5.40333 156.665 3.64666 158.195 2.23C159.725 0.813329 161.708 0.104995 164.145 0.104995C166.581 0.104995 168.565 0.784996 170.095 2.145C171.625 3.44833 172.39 5.14833 172.39 7.245C172.39 9.455 171.625 11.2967 170.095 12.77C168.621 14.1867 166.638 14.895 164.145 14.895ZM184.696 67V20.25C184.696 15.0933 186.226 10.985 189.286 7.925C192.346 4.80833 196.709 3.24999 202.376 3.24999C204.303 3.24999 206.144 3.44833 207.901 3.845C209.714 4.24166 211.244 4.865 212.491 5.715L209.006 15.32C208.269 14.81 207.448 14.4133 206.541 14.13C205.634 13.8467 204.671 13.705 203.651 13.705C201.724 13.705 200.223 14.2717 199.146 15.405C198.126 16.4817 197.616 18.125 197.616 20.335V24.585L197.956 30.28V67H184.696ZM177.641 32.49V22.29H209.346V32.49H177.641ZM222.562 84.17C220.182 84.17 217.83 83.8017 215.507 83.065C213.184 82.3283 211.285 81.3083 209.812 80.005L214.657 70.57C215.677 71.4767 216.839 72.185 218.142 72.695C219.502 73.205 220.834 73.46 222.137 73.46C224.007 73.46 225.48 73.0067 226.557 72.1C227.69 71.25 228.71 69.805 229.617 67.765L231.997 62.155L233.017 60.71L249.422 21.27H262.172L241.517 69.805C240.044 73.4883 238.344 76.3783 236.417 78.475C234.547 80.5717 232.45 82.045 230.127 82.895C227.86 83.745 225.339 84.17 222.562 84.17ZM230.382 68.785L209.982 21.27H223.667L239.477 59.52L230.382 68.785ZM180.137 185.152C170.601 185.152 163.145 182.496 157.769 177.184C152.393 171.872 149.705 164.288 149.705 154.432V116.8H165.257V153.856C165.257 160.256 166.569 164.864 169.193 167.68C171.817 170.496 175.497 171.904 180.233 171.904C184.969 171.904 188.649 170.496 191.273 167.68C193.897 164.864 195.208 160.256 195.208 153.856V116.8H210.569V154.432C210.569 164.288 207.881 171.872 202.505 177.184C197.129 182.496 189.673 185.152 180.137 185.152ZM256.273 131.584C260.369 131.584 264.017 132.416 267.217 134.08C270.481 135.68 273.041 138.176 274.897 141.568C276.753 144.896 277.681 149.184 277.681 154.432V184H262.705V156.736C262.705 152.576 261.777 149.504 259.921 147.52C258.129 145.536 255.569 144.544 252.241 144.544C249.873 144.544 247.729 145.056 245.809 146.08C243.953 147.04 242.481 148.544 241.393 150.592C240.369 152.64 239.857 155.264 239.857 158.464V184H224.881V132.352H239.185V146.656L236.497 142.336C238.353 138.88 241.009 136.224 244.465 134.368C247.921 132.512 251.857 131.584 256.273 131.584ZM291.256 184V132.352H306.232V184H291.256ZM298.744 125.152C295.992 125.152 293.752 124.352 292.024 122.752C290.296 121.152 289.432 119.168 289.432 116.8C289.432 114.432 290.296 112.448 292.024 110.848C293.752 109.248 295.992 108.448 298.744 108.448C301.496 108.448 303.736 109.216 305.464 110.752C307.192 112.224 308.056 114.144 308.056 116.512C308.056 119.008 307.192 121.088 305.464 122.752C303.8 124.352 301.56 125.152 298.744 125.152ZM334.147 184L312.451 132.352H327.907L345.955 176.8H338.275L356.995 132.352H371.395L349.603 184H334.147ZM401.732 184.768C395.844 184.768 390.66 183.616 386.18 181.312C381.764 179.008 378.34 175.872 375.908 171.904C373.476 167.872 372.26 163.296 372.26 158.176C372.26 152.992 373.444 148.416 375.812 144.448C378.244 140.416 381.54 137.28 385.7 135.04C389.86 132.736 394.564 131.584 399.812 131.584C404.868 131.584 409.412 132.672 413.444 134.848C417.54 136.96 420.772 140.032 423.14 144.064C425.508 148.032 426.692 152.8 426.692 158.368C426.692 158.944 426.66 159.616 426.596 160.384C426.532 161.088 426.468 161.76 426.404 162.4H384.452V153.664H418.531L412.772 156.256C412.772 153.568 412.228 151.232 411.14 149.248C410.052 147.264 408.548 145.728 406.628 144.64C404.708 143.488 402.468 142.912 399.908 142.912C397.348 142.912 395.076 143.488 393.092 144.64C391.172 145.728 389.668 147.296 388.58 149.344C387.492 151.328 386.948 153.696 386.948 156.448V158.752C386.948 161.568 387.556 164.064 388.772 166.24C390.052 168.352 391.812 169.984 394.052 171.136C396.356 172.224 399.044 172.768 402.116 172.768C404.868 172.768 407.268 172.352 409.316 171.52C411.428 170.688 413.348 169.44 415.076 167.776L423.044 176.416C420.676 179.104 417.7 181.184 414.116 182.656C410.532 184.064 406.404 184.768 401.732 184.768ZM436.662 184V132.352H450.966V146.944L448.95 142.72C450.486 139.072 452.95 136.32 456.342 134.464C459.734 132.544 463.862 131.584 468.726 131.584V145.408C468.086 145.344 467.51 145.312 466.998 145.312C466.486 145.248 465.942 145.216 465.366 145.216C461.27 145.216 457.942 146.4 455.382 148.768C452.886 151.072 451.638 154.688 451.638 159.616V184H436.662ZM495.382 184.768C490.966 184.768 486.71 184.256 482.614 183.232C478.582 182.144 475.382 180.8 473.014 179.2L478.006 168.448C480.374 169.92 483.158 171.136 486.358 172.096C489.622 172.992 492.822 173.44 495.958 173.44C499.414 173.44 501.846 173.024 503.254 172.192C504.726 171.36 505.462 170.208 505.462 168.736C505.462 167.52 504.886 166.624 503.734 166.048C502.646 165.408 501.174 164.928 499.318 164.608C497.462 164.288 495.414 163.968 493.174 163.648C490.998 163.328 488.79 162.912 486.55 162.4C484.31 161.824 482.262 160.992 480.406 159.904C478.55 158.816 477.046 157.344 475.894 155.488C474.806 153.632 474.262 151.232 474.262 148.288C474.262 145.024 475.19 142.144 477.046 139.648C478.966 137.152 481.718 135.2 485.302 133.792C488.886 132.32 493.174 131.584 498.166 131.584C501.686 131.584 505.27 131.968 508.918 132.736C512.566 133.504 515.606 134.624 518.038 136.096L513.046 146.752C510.55 145.28 508.022 144.288 505.462 143.776C502.966 143.2 500.534 142.912 498.166 142.912C494.838 142.912 492.406 143.36 490.87 144.256C489.334 145.152 488.566 146.304 488.566 147.712C488.566 148.992 489.11 149.952 490.198 150.592C491.35 151.232 492.854 151.744 494.71 152.128C496.566 152.512 498.582 152.864 500.758 153.184C502.998 153.44 505.238 153.856 507.478 154.432C509.718 155.008 511.734 155.84 513.526 156.928C515.382 157.952 516.886 159.392 518.038 161.248C519.19 163.04 519.766 165.408 519.766 168.352C519.766 171.552 518.806 174.4 516.886 176.896C514.966 179.328 512.182 181.248 508.534 182.656C504.95 184.064 500.566 184.768 495.382 184.768ZM529.006 184V132.352H543.982V184H529.006ZM536.494 125.152C533.742 125.152 531.502 124.352 529.774 122.752C528.046 121.152 527.182 119.168 527.182 116.8C527.182 114.432 528.046 112.448 529.774 110.848C531.502 109.248 533.742 108.448 536.494 108.448C539.246 108.448 541.486 109.216 543.214 110.752C544.942 112.224 545.806 114.144 545.806 116.512C545.806 119.008 544.942 121.088 543.214 122.752C541.55 124.352 539.31 125.152 536.494 125.152ZM579.001 184.768C572.921 184.768 568.185 183.232 564.793 180.16C561.401 177.024 559.705 172.384 559.705 166.24V120.928H574.681V166.048C574.681 168.224 575.257 169.92 576.409 171.136C577.561 172.288 579.129 172.864 581.113 172.864C583.481 172.864 585.497 172.224 587.161 170.944L591.193 181.504C589.657 182.592 587.801 183.424 585.625 184C583.513 184.512 581.305 184.768 579.001 184.768ZM551.737 145.024V133.504H587.545V145.024H551.737ZM605.19 203.392C602.502 203.392 599.846 202.976 597.222 202.144C594.598 201.312 592.454 200.16 590.79 198.688L596.262 188.032C597.414 189.056 598.726 189.856 600.198 190.432C601.734 191.008 603.238 191.296 604.71 191.296C606.822 191.296 608.486 190.784 609.702 189.76C610.982 188.8 612.134 187.168 613.158 184.864L615.846 178.528L616.998 176.896L635.526 132.352H649.926L626.598 187.168C624.934 191.328 623.014 194.592 620.838 196.96C618.726 199.328 616.358 200.992 613.734 201.952C611.174 202.912 608.326 203.392 605.19 203.392ZM614.022 186.016L590.982 132.352H606.438L624.294 175.552L614.022 186.016ZM675.448 184L705.401 116.8H720.761L750.809 184H734.489L709.913 124.672H716.057L691.385 184H675.448ZM690.424 169.6L694.553 157.792H729.113L733.337 169.6H690.424ZM787.253 184.768C782.901 184.768 779.093 183.808 775.829 181.888C772.565 179.968 770.005 177.056 768.149 173.152C766.357 169.184 765.461 164.192 765.461 158.176C765.461 152.096 766.325 147.104 768.053 143.2C769.781 139.296 772.277 136.384 775.541 134.464C778.805 132.544 782.709 131.584 787.253 131.584C792.117 131.584 796.469 132.704 800.309 134.944C804.213 137.12 807.285 140.192 809.525 144.16C811.829 148.128 812.981 152.8 812.981 158.176C812.981 163.616 811.829 168.32 809.525 172.288C807.285 176.256 804.213 179.328 800.309 181.504C796.469 183.68 792.117 184.768 787.253 184.768ZM756.725 202.624V132.352H771.029V142.912L770.741 158.272L771.701 173.536V202.624H756.725ZM784.661 172.48C787.157 172.48 789.365 171.904 791.285 170.752C793.269 169.6 794.837 167.968 795.989 165.856C797.205 163.68 797.812 161.12 797.812 158.176C797.812 155.168 797.205 152.608 795.989 150.496C794.837 148.384 793.269 146.752 791.285 145.6C789.365 144.448 787.157 143.872 784.661 143.872C782.165 143.872 779.925 144.448 777.941 145.6C775.957 146.752 774.389 148.384 773.237 150.496C772.085 152.608 771.509 155.168 771.509 158.176C771.509 161.12 772.085 163.68 773.237 165.856C774.389 167.968 775.957 169.6 777.941 170.752C779.925 171.904 782.165 172.48 784.661 172.48ZM853.534 184.768C849.182 184.768 845.374 183.808 842.11 181.888C838.846 179.968 836.286 177.056 834.43 173.152C832.638 169.184 831.742 164.192 831.742 158.176C831.742 152.096 832.606 147.104 834.334 143.2C836.062 139.296 838.558 136.384 841.822 134.464C845.086 132.544 848.99 131.584 853.534 131.584C858.398 131.584 862.75 132.704 866.59 134.944C870.494 137.12 873.566 140.192 875.806 144.16C878.11 148.128 879.262 152.8 879.262 158.176C879.262 163.616 878.11 168.32 875.806 172.288C873.566 176.256 870.494 179.328 866.59 181.504C862.75 183.68 858.398 184.768 853.534 184.768ZM823.006 202.624V132.352H837.31V142.912L837.022 158.272L837.982 173.536V202.624H823.006ZM850.942 172.48C853.438 172.48 855.646 171.904 857.566 170.752C859.55 169.6 861.118 167.968 862.27 165.856C863.486 163.68 864.094 161.12 864.094 158.176C864.094 155.168 863.486 152.608 862.27 150.496C861.118 148.384 859.55 146.752 857.566 145.6C855.646 144.448 853.438 143.872 850.942 143.872C848.446 143.872 846.206 144.448 844.222 145.6C842.238 146.752 840.67 148.384 839.518 150.496C838.366 152.608 837.79 155.168 837.79 158.176C837.79 161.12 838.366 163.68 839.518 165.856C840.67 167.968 842.238 169.6 844.222 170.752C846.206 171.904 848.446 172.48 850.942 172.48ZM889.287 184V112.768H904.263V184H889.287ZM918.162 184V132.352H933.138V184H918.162ZM925.65 125.152C922.898 125.152 920.658 124.352 918.93 122.752C917.202 121.152 916.338 119.168 916.338 116.8C916.338 114.432 917.202 112.448 918.93 110.848C920.658 109.248 922.898 108.448 925.65 108.448C928.402 108.448 930.642 109.216 932.37 110.752C934.098 112.224 934.962 114.144 934.962 116.512C934.962 119.008 934.098 121.088 932.37 122.752C930.706 124.352 928.466 125.152 925.65 125.152ZM971.997 184.768C966.429 184.768 961.469 183.648 957.117 181.408C952.765 179.104 949.341 175.936 946.845 171.904C944.413 167.872 943.197 163.296 943.197 158.176C943.197 152.992 944.413 148.416 946.845 144.448C949.341 140.416 952.765 137.28 957.117 135.04C961.469 132.736 966.429 131.584 971.997 131.584C977.437 131.584 982.173 132.736 986.205 135.04C990.237 137.28 993.213 140.512 995.133 144.736L983.517 150.976C982.173 148.544 980.477 146.752 978.429 145.6C976.445 144.448 974.269 143.872 971.901 143.872C969.341 143.872 967.037 144.448 964.989 145.6C962.941 146.752 961.309 148.384 960.093 150.496C958.941 152.608 958.365 155.168 958.365 158.176C958.365 161.184 958.941 163.744 960.093 165.856C961.309 167.968 962.941 169.6 964.989 170.752C967.037 171.904 969.341 172.48 971.901 172.48C974.269 172.48 976.445 171.936 978.429 170.848C980.477 169.696 982.173 167.872 983.517 165.376L995.133 171.712C993.213 175.872 990.237 179.104 986.205 181.408C982.173 183.648 977.437 184.768 971.997 184.768ZM1035.44 184V173.92L1034.48 171.712V153.664C1034.48 150.464 1033.48 147.968 1031.5 146.176C1029.58 144.384 1026.6 143.488 1022.57 143.488C1019.82 143.488 1017.1 143.936 1014.41 144.832C1011.79 145.664 1009.55 146.816 1007.69 148.288L1002.32 137.824C1005.13 135.84 1008.52 134.304 1012.49 133.216C1016.46 132.128 1020.49 131.584 1024.59 131.584C1032.46 131.584 1038.57 133.44 1042.92 137.152C1047.28 140.864 1049.45 146.656 1049.45 154.528V184H1035.44ZM1019.69 184.768C1015.66 184.768 1012.2 184.096 1009.32 182.752C1006.44 181.344 1004.24 179.456 1002.7 177.088C1001.16 174.72 1000.4 172.064 1000.4 169.12C1000.4 166.048 1001.13 163.36 1002.6 161.056C1004.14 158.752 1006.54 156.96 1009.8 155.68C1013.07 154.336 1017.32 153.664 1022.57 153.664H1036.3V162.4H1024.2C1020.68 162.4 1018.25 162.976 1016.91 164.128C1015.63 165.28 1014.99 166.72 1014.99 168.448C1014.99 170.368 1015.72 171.904 1017.2 173.056C1018.73 174.144 1020.81 174.688 1023.44 174.688C1025.93 174.688 1028.17 174.112 1030.16 172.96C1032.14 171.744 1033.58 169.984 1034.48 167.68L1036.78 174.592C1035.69 177.92 1033.71 180.448 1030.83 182.176C1027.95 183.904 1024.24 184.768 1019.69 184.768ZM1084.13 184.768C1078.05 184.768 1073.31 183.232 1069.92 180.16C1066.53 177.024 1064.83 172.384 1064.83 166.24V120.928H1079.81V166.048C1079.81 168.224 1080.38 169.92 1081.53 171.136C1082.69 172.288 1084.25 172.864 1086.24 172.864C1088.61 172.864 1090.62 172.224 1092.29 170.944L1096.32 181.504C1094.78 182.592 1092.93 183.424 1090.75 184C1088.64 184.512 1086.43 184.768 1084.13 184.768ZM1056.86 145.024V133.504H1092.67V145.024H1056.86ZM1104.72 184V132.352H1119.7V184H1104.72ZM1112.21 125.152C1109.46 125.152 1107.22 124.352 1105.49 122.752C1103.76 121.152 1102.9 119.168 1102.9 116.8C1102.9 114.432 1103.76 112.448 1105.49 110.848C1107.22 109.248 1109.46 108.448 1112.21 108.448C1114.96 108.448 1117.2 109.216 1118.93 110.752C1120.66 112.224 1121.52 114.144 1121.52 116.512C1121.52 119.008 1120.66 121.088 1118.93 122.752C1117.27 124.352 1115.03 125.152 1112.21 125.152ZM1158.18 184.768C1152.67 184.768 1147.78 183.616 1143.49 181.312C1139.26 179.008 1135.9 175.872 1133.41 171.904C1130.98 167.872 1129.76 163.296 1129.76 158.176C1129.76 152.992 1130.98 148.416 1133.41 144.448C1135.9 140.416 1139.26 137.28 1143.49 135.04C1147.78 132.736 1152.67 131.584 1158.18 131.584C1163.62 131.584 1168.48 132.736 1172.77 135.04C1177.06 137.28 1180.42 140.384 1182.85 144.352C1185.28 148.32 1186.5 152.928 1186.5 158.176C1186.5 163.296 1185.28 167.872 1182.85 171.904C1180.42 175.872 1177.06 179.008 1172.77 181.312C1168.48 183.616 1163.62 184.768 1158.18 184.768ZM1158.18 172.48C1160.67 172.48 1162.91 171.904 1164.9 170.752C1166.88 169.6 1168.45 167.968 1169.6 165.856C1170.75 163.68 1171.33 161.12 1171.33 158.176C1171.33 155.168 1170.75 152.608 1169.6 150.496C1168.45 148.384 1166.88 146.752 1164.9 145.6C1162.91 144.448 1160.67 143.872 1158.18 143.872C1155.68 143.872 1153.44 144.448 1151.46 145.6C1149.47 146.752 1147.87 148.384 1146.66 150.496C1145.5 152.608 1144.93 155.168 1144.93 158.176C1144.93 161.12 1145.5 163.68 1146.66 165.856C1147.87 167.968 1149.47 169.6 1151.46 170.752C1153.44 171.904 1155.68 172.48 1158.18 172.48ZM1227.9 131.584C1231.99 131.584 1235.64 132.416 1238.84 134.08C1242.11 135.68 1244.67 138.176 1246.52 141.568C1248.38 144.896 1249.31 149.184 1249.31 154.432V184H1234.33V156.736C1234.33 152.576 1233.4 149.504 1231.55 147.52C1229.75 145.536 1227.19 144.544 1223.87 144.544C1221.5 144.544 1219.35 145.056 1217.43 146.08C1215.58 147.04 1214.11 148.544 1213.02 150.592C1211.99 152.64 1211.48 155.264 1211.48 158.464V184H1196.51V132.352H1210.81V146.656L1208.12 142.336C1209.98 138.88 1212.63 136.224 1216.09 134.368C1219.55 132.512 1223.48 131.584 1227.9 131.584ZM1280.26 184.768C1275.84 184.768 1271.58 184.256 1267.49 183.232C1263.46 182.144 1260.26 180.8 1257.89 179.2L1262.88 168.448C1265.25 169.92 1268.03 171.136 1271.23 172.096C1274.5 172.992 1277.7 173.44 1280.83 173.44C1284.29 173.44 1286.72 173.024 1288.13 172.192C1289.6 171.36 1290.34 170.208 1290.34 168.736C1290.34 167.52 1289.76 166.624 1288.61 166.048C1287.52 165.408 1286.05 164.928 1284.19 164.608C1282.34 164.288 1280.29 163.968 1278.05 163.648C1275.87 163.328 1273.66 162.912 1271.42 162.4C1269.18 161.824 1267.14 160.992 1265.28 159.904C1263.42 158.816 1261.92 157.344 1260.77 155.488C1259.68 153.632 1259.14 151.232 1259.14 148.288C1259.14 145.024 1260.06 142.144 1261.92 139.648C1263.84 137.152 1266.59 135.2 1270.18 133.792C1273.76 132.32 1278.05 131.584 1283.04 131.584C1286.56 131.584 1290.14 131.968 1293.79 132.736C1297.44 133.504 1300.48 134.624 1302.91 136.096L1297.92 146.752C1295.42 145.28 1292.9 144.288 1290.34 143.776C1287.84 143.2 1285.41 142.912 1283.04 142.912C1279.71 142.912 1277.28 143.36 1275.74 144.256C1274.21 145.152 1273.44 146.304 1273.44 147.712C1273.44 148.992 1273.98 149.952 1275.07 150.592C1276.22 151.232 1277.73 151.744 1279.58 152.128C1281.44 152.512 1283.46 152.864 1285.63 153.184C1287.87 153.44 1290.11 153.856 1292.35 154.432C1294.59 155.008 1296.61 155.84 1298.4 156.928C1300.26 157.952 1301.76 159.392 1302.91 161.248C1304.06 163.04 1304.64 165.408 1304.64 168.352C1304.64 171.552 1303.68 174.4 1301.76 176.896C1299.84 179.328 1297.06 181.248 1293.41 182.656C1289.82 184.064 1285.44 184.768 1280.26 184.768Z" fill="url(#paint0_linear_50_142)"/>
<path d="M304.915 67V18.72H285.875V7.5H337.725V18.72H318.685V67H304.915ZM371.994 20.59C375.621 20.59 378.851 21.3267 381.684 22.8C384.574 24.2167 386.841 26.4267 388.484 29.43C390.127 32.3767 390.949 36.1733 390.949 40.82V67H377.689V42.86C377.689 39.1767 376.867 36.4567 375.224 34.7C373.637 32.9433 371.371 32.065 368.424 32.065C366.327 32.065 364.429 32.5183 362.729 33.425C361.086 34.275 359.782 35.6067 358.819 37.42C357.912 39.2333 357.459 41.5567 357.459 44.39V67H344.199V3.93H357.459V33.935L354.484 30.11C356.127 27.05 358.479 24.6983 361.539 23.055C364.599 21.4117 368.084 20.59 371.994 20.59ZM425.996 67.68C420.782 67.68 416.192 66.66 412.226 64.62C408.316 62.58 405.284 59.8033 403.131 56.29C400.977 52.72 399.901 48.6683 399.901 44.135C399.901 39.545 400.949 35.4933 403.046 31.98C405.199 28.41 408.117 25.6333 411.801 23.65C415.484 21.61 419.649 20.59 424.296 20.59C428.772 20.59 432.796 21.5533 436.366 23.48C439.992 25.35 442.854 28.07 444.951 31.64C447.047 35.1533 448.096 39.375 448.096 44.305C448.096 44.815 448.067 45.41 448.011 46.09C447.954 46.7133 447.897 47.3083 447.841 47.875H410.696V40.14H440.871L435.771 42.435C435.771 40.055 435.289 37.9867 434.326 36.23C433.362 34.4733 432.031 33.1133 430.331 32.15C428.631 31.13 426.647 30.62 424.381 30.62C422.114 30.62 420.102 31.13 418.346 32.15C416.646 33.1133 415.314 34.5017 414.351 36.315C413.387 38.0717 412.906 40.1683 412.906 42.605V44.645C412.906 47.1383 413.444 49.3483 414.521 51.275C415.654 53.145 417.212 54.59 419.196 55.61C421.236 56.5733 423.616 57.055 426.336 57.055C428.772 57.055 430.897 56.6867 432.711 55.95C434.581 55.2133 436.281 54.1083 437.811 52.635L444.866 60.285C442.769 62.665 440.134 64.5067 436.961 65.81C433.787 67.0567 430.132 67.68 425.996 67.68ZM501.481 68.02C496.721 68.02 492.159 67.3967 487.796 66.15C483.433 64.8467 479.919 63.175 477.256 61.135L481.931 50.765C484.481 52.5783 487.484 54.08 490.941 55.27C494.454 56.4033 497.996 56.97 501.566 56.97C504.286 56.97 506.468 56.715 508.111 56.205C509.811 55.6383 511.058 54.8733 511.851 53.91C512.644 52.9467 513.041 51.8417 513.041 50.595C513.041 49.0083 512.418 47.7617 511.171 46.855C509.924 45.8917 508.281 45.1267 506.241 44.56C504.201 43.9367 501.934 43.37 499.441 42.86C497.004 42.2933 494.539 41.6133 492.046 40.82C489.609 40.0267 487.371 39.0067 485.331 37.76C483.291 36.5133 481.619 34.87 480.316 32.83C479.069 30.79 478.446 28.1833 478.446 25.01C478.446 21.61 479.353 18.5217 481.166 15.745C483.036 12.9117 485.813 10.6733 489.496 9.03C493.236 7.33 497.911 6.48 503.521 6.48C507.261 6.48 510.944 6.93333 514.571 7.84C518.198 8.69 521.399 9.99333 524.176 11.75L519.926 22.205C517.149 20.6183 514.373 19.4567 511.596 18.72C508.819 17.9267 506.099 17.53 503.436 17.53C500.773 17.53 498.591 17.8417 496.891 18.465C495.191 19.0883 493.973 19.91 493.236 20.93C492.499 21.8933 492.131 23.0267 492.131 24.33C492.131 25.86 492.754 27.1067 494.001 28.07C495.248 28.9767 496.891 29.7133 498.931 30.28C500.971 30.8467 503.209 31.4133 505.646 31.98C508.139 32.5467 510.604 33.1983 513.041 33.935C515.534 34.6717 517.801 35.6633 519.841 36.91C521.881 38.1567 523.524 39.8 524.771 41.84C526.074 43.88 526.726 46.4583 526.726 49.575C526.726 52.9183 525.791 55.9783 523.921 58.755C522.051 61.5317 519.246 63.77 515.506 65.47C511.823 67.17 507.148 68.02 501.481 68.02ZM553.9 67.68C548.517 67.68 544.323 66.32 541.32 63.6C538.317 60.8233 536.815 56.715 536.815 51.275V11.155H550.075V51.105C550.075 53.0317 550.585 54.5333 551.605 55.61C552.625 56.63 554.013 57.14 555.77 57.14C557.867 57.14 559.652 56.5733 561.125 55.44L564.695 64.79C563.335 65.7533 561.692 66.49 559.765 67C557.895 67.4533 555.94 67.68 553.9 67.68ZM529.76 32.49V22.29H561.465V32.49H529.76ZM572.139 67V21.27H584.804V34.19L583.019 30.45C584.379 27.22 586.56 24.7833 589.564 23.14C592.567 21.44 596.222 20.59 600.529 20.59V32.83C599.962 32.7733 599.452 32.745 598.999 32.745C598.545 32.6883 598.064 32.66 597.554 32.66C593.927 32.66 590.98 33.7083 588.714 35.805C586.504 37.845 585.399 41.0467 585.399 45.41V67H572.139ZM630.776 67.68C625.563 67.68 620.973 66.66 617.006 64.62C613.096 62.58 610.064 59.8033 607.911 56.29C605.758 52.72 604.681 48.6683 604.681 44.135C604.681 39.545 605.729 35.4933 607.826 31.98C609.979 28.41 612.898 25.6333 616.581 23.65C620.264 21.61 624.429 20.59 629.076 20.59C633.553 20.59 637.576 21.5533 641.146 23.48C644.773 25.35 647.634 28.07 649.731 31.64C651.828 35.1533 652.876 39.375 652.876 44.305C652.876 44.815 652.848 45.41 652.791 46.09C652.734 46.7133 652.678 47.3083 652.621 47.875H615.476V40.14H645.651L640.551 42.435C640.551 40.055 640.069 37.9867 639.106 36.23C638.143 34.4733 636.811 33.1133 635.111 32.15C633.411 31.13 631.428 30.62 629.161 30.62C626.894 30.62 624.883 31.13 623.126 32.15C621.426 33.1133 620.094 34.5017 619.131 36.315C618.168 38.0717 617.686 40.1683 617.686 42.605V44.645C617.686 47.1383 618.224 49.3483 619.301 51.275C620.434 53.145 621.993 54.59 623.976 55.61C626.016 56.5733 628.396 57.055 631.116 57.055C633.553 57.055 635.678 56.6867 637.491 55.95C639.361 55.2133 641.061 54.1083 642.591 52.635L649.646 60.285C647.549 62.665 644.914 64.5067 641.741 65.81C638.568 67.0567 634.913 67.68 630.776 67.68ZM677.089 67.68C673.179 67.68 669.411 67.2267 665.784 66.32C662.214 65.3567 659.381 64.1667 657.284 62.75L661.704 53.23C663.801 54.5333 666.266 55.61 669.099 56.46C671.989 57.2533 674.822 57.65 677.599 57.65C680.659 57.65 682.812 57.2817 684.059 56.545C685.362 55.8083 686.014 54.7883 686.014 53.485C686.014 52.4083 685.504 51.615 684.484 51.105C683.521 50.5383 682.217 50.1133 680.574 49.83C678.931 49.5467 677.117 49.2633 675.134 48.98C673.207 48.6967 671.252 48.3283 669.269 47.875C667.286 47.365 665.472 46.6283 663.829 45.665C662.186 44.7017 660.854 43.3983 659.834 41.755C658.871 40.1117 658.389 37.9867 658.389 35.38C658.389 32.49 659.211 29.94 660.854 27.73C662.554 25.52 664.991 23.7917 668.164 22.545C671.337 21.2417 675.134 20.59 679.554 20.59C682.671 20.59 685.844 20.93 689.074 21.61C692.304 22.29 694.996 23.2817 697.149 24.585L692.729 34.02C690.519 32.7167 688.281 31.8383 686.014 31.385C683.804 30.875 681.651 30.62 679.554 30.62C676.607 30.62 674.454 31.0167 673.094 31.81C671.734 32.6033 671.054 33.6233 671.054 34.87C671.054 36.0033 671.536 36.8533 672.499 37.42C673.519 37.9867 674.851 38.44 676.494 38.78C678.137 39.12 679.922 39.4317 681.849 39.715C683.832 39.9417 685.816 40.31 687.799 40.82C689.782 41.33 691.567 42.0667 693.154 43.03C694.797 43.9367 696.129 45.2117 697.149 46.855C698.169 48.4417 698.679 50.5383 698.679 53.145C698.679 55.9783 697.829 58.5 696.129 60.71C694.429 62.8633 691.964 64.5633 688.734 65.81C685.561 67.0567 681.679 67.68 677.089 67.68ZM722.245 67.68C718.335 67.68 714.567 67.2267 710.94 66.32C707.37 65.3567 704.537 64.1667 702.44 62.75L706.86 53.23C708.957 54.5333 711.422 55.61 714.255 56.46C717.145 57.2533 719.979 57.65 722.755 57.65C725.815 57.65 727.969 57.2817 729.215 56.545C730.519 55.8083 731.17 54.7883 731.17 53.485C731.17 52.4083 730.66 51.615 729.64 51.105C728.677 50.5383 727.374 50.1133 725.73 49.83C724.087 49.5467 722.274 49.2633 720.29 48.98C718.364 48.6967 716.409 48.3283 714.425 47.875C712.442 47.365 710.629 46.6283 708.985 45.665C707.342 44.7017 706.01 43.3983 704.99 41.755C704.027 40.1117 703.545 37.9867 703.545 35.38C703.545 32.49 704.367 29.94 706.01 27.73C707.71 25.52 710.147 23.7917 713.32 22.545C716.494 21.2417 720.29 20.59 724.71 20.59C727.827 20.59 731 20.93 734.23 21.61C737.46 22.29 740.152 23.2817 742.305 24.585L737.885 34.02C735.675 32.7167 733.437 31.8383 731.17 31.385C728.96 30.875 726.807 30.62 724.71 30.62C721.764 30.62 719.61 31.0167 718.25 31.81C716.89 32.6033 716.21 33.6233 716.21 34.87C716.21 36.0033 716.692 36.8533 717.655 37.42C718.675 37.9867 720.007 38.44 721.65 38.78C723.294 39.12 725.079 39.4317 727.005 39.715C728.989 39.9417 730.972 40.31 732.955 40.82C734.939 41.33 736.724 42.0667 738.31 43.03C739.954 43.9367 741.285 45.2117 742.305 46.855C743.325 48.4417 743.835 50.5383 743.835 53.145C743.835 55.9783 742.985 58.5 741.285 60.71C739.585 62.8633 737.12 64.5633 733.89 65.81C730.717 67.0567 726.835 67.68 722.245 67.68ZM37.608 185.152C32.296 185.152 27.368 184.288 22.824 182.56C18.344 180.832 14.44 178.4 11.112 175.264C7.848 172.128 5.288 168.448 3.432 164.224C1.64 160 0.744 155.392 0.744 150.4C0.744 145.408 1.64 140.8 3.432 136.576C5.288 132.352 7.88 128.672 11.208 125.536C14.536 122.4 18.44 119.968 22.92 118.24C27.4 116.512 32.264 115.648 37.512 115.648C42.824 115.648 47.688 116.512 52.104 118.24C56.584 119.968 60.456 122.4 63.72 125.536C67.048 128.672 69.64 132.352 71.496 136.576C73.352 140.736 74.28 145.344 74.28 150.4C74.28 155.392 73.352 160.032 71.496 164.32C69.64 168.544 67.048 172.224 63.72 175.36C60.456 178.432 56.584 180.832 52.104 182.56C47.688 184.288 42.856 185.152 37.608 185.152ZM37.512 171.904C40.52 171.904 43.272 171.392 45.768 170.368C48.328 169.344 50.568 167.872 52.488 165.952C54.408 164.032 55.88 161.76 56.904 159.136C57.992 156.512 58.536 153.6 58.536 150.4C58.536 147.2 57.992 144.288 56.904 141.664C55.88 139.04 54.408 136.768 52.488 134.848C50.632 132.928 48.424 131.456 45.864 130.432C43.304 129.408 40.52 128.896 37.512 128.896C34.504 128.896 31.72 129.408 29.16 130.432C26.664 131.456 24.456 132.928 22.536 134.848C20.616 136.768 19.112 139.04 18.024 141.664C17 144.288 16.488 147.2 16.488 150.4C16.488 153.536 17 156.448 18.024 159.136C19.112 161.76 20.584 164.032 22.44 165.952C24.36 167.872 26.6 169.344 29.16 170.368C31.72 171.392 34.504 171.904 37.512 171.904ZM86.736 184V131.2C86.736 125.376 88.464 120.736 91.92 117.28C95.376 113.76 100.304 112 106.704 112C108.88 112 110.96 112.224 112.944 112.672C114.992 113.12 116.72 113.824 118.128 114.784L114.192 125.632C113.36 125.056 112.432 124.608 111.408 124.288C110.384 123.968 109.296 123.808 108.144 123.808C105.968 123.808 104.272 124.448 103.056 125.728C101.904 126.944 101.328 128.8 101.328 131.296V136.096L101.712 142.528V184H86.736ZM78.768 145.024V133.504H114.576V145.024H78.768Z" fill="white"/>
<defs>
<linearGradient id="paint0_linear_50_142" x1="-23.7466" y1="28.4286" x2="465.363" y2="106.959" gradientUnits="userSpaceOnUse">
<stop stop-color="#EC74A4"/>
<stop offset="1" stop-color="#FF0066"/>
</linearGradient>
</defs>
</svg>
